<svg width="31" height="27" viewBox="0 0 31 27" fill="none" xmlns="http://www.w3.org/2000/svg">
<path d="M24.2501 6.20833H6.75008V0.375H24.2501V6.20833ZM24.2501 14.2292C24.6633 14.2292 25.0094 14.0892 25.2884 13.8092C25.5684 13.5301 25.7084 13.184 25.7084 12.7708C25.7084 12.3576 25.5684 12.011 25.2884 11.731C25.0094 11.452 24.6633 11.3125 24.2501 11.3125C23.8369 11.3125 23.4908 11.452 23.2117 11.731C22.9317 12.011 22.7917 12.3576 22.7917 12.7708C22.7917 13.184 22.9317 13.5301 23.2117 13.8092C23.4908 14.0892 23.8369 14.2292 24.2501 14.2292ZM21.3334 23.7083V17.875H9.66675V23.7083H21.3334ZM24.2501 26.625H6.75008V20.7917H0.916748V7.66667H30.0834V20.7917H24.2501V26.625Z" fill="#434343"/>
</svg>
